<?xml version="1.0" ?><svg width="20" height="12" viewBox="0 0 20 12" fill="none" xmlns="http://www.w3.org/2000/svg">
<path d="M7.574 6.688H4.774V9.516H3.22V6.688H0.434V5.218H3.22V2.376H4.774V5.218H7.574V6.688ZM10.476 8.144C10.5507 8.676 10.7327 9.08667 11.022 9.376C11.3207 9.66533 11.722 9.81 12.226 9.81C12.9354 9.81 13.4627 9.53 13.808 8.97C14.1627 8.40067 14.34 7.50933 14.34 6.296L14.326 5.82C14.1767 6.324 13.864 6.73 13.388 7.038C12.9214 7.33667 12.3754 7.486 11.75 7.486C10.7794 7.486 10.0187 7.19667 9.46805 6.618C8.91738 6.03 8.64205 5.21333 8.64205 4.168C8.64205 3.53333 8.76805 2.964 9.02005 2.46C9.27205 1.956 9.65005 1.55933 10.154 1.27C10.658 0.971333 11.2787 0.821999 12.016 0.821999C13.444 0.821999 14.424 1.26067 14.956 2.138C15.4974 3.006 15.768 4.21 15.768 5.75C15.768 7.49533 15.4927 8.82533 14.942 9.74C14.4007 10.6547 13.4954 11.112 12.226 11.112C11.246 11.112 10.476 10.8367 9.91605 10.286C9.36538 9.726 9.04805 9.012 8.96405 8.144H10.476ZM14.172 4.336C14.172 3.72933 13.9947 3.22533 13.64 2.824C13.2947 2.41333 12.772 2.208 12.072 2.208C11.4934 2.208 11.0267 2.38067 10.672 2.726C10.3267 3.07133 10.154 3.55667 10.154 4.182C10.154 4.84467 10.3267 5.35333 10.672 5.708C11.0267 6.06267 11.5074 6.24 12.114 6.24C12.4687 6.24 12.8 6.17 13.108 6.03C13.4254 5.88067 13.682 5.666 13.878 5.386C14.074 5.09667 14.172 4.74667 14.172 4.336ZM16.6703 2.614V1.116H19.8343V11H18.1543V2.614H16.6703Z" fill="#A8A8A8"/>
</svg>
