<?xml version="1.0" ?><svg width="86" height="42" viewBox="0 0 86 42" fill="none" xmlns="http://www.w3.org/2000/svg">
<path d="M18.6094 30.9961C18.8672 31.2539 19.1953 31.3945 19.582 31.3945C20.3555 31.3945 20.9766 30.7852 20.9766 30.0117C20.9766 29.625 20.8125 29.2734 20.543 29.0039L12.3398 20.9883L20.543 12.9961C20.8125 12.7266 20.9766 12.3633 20.9766 11.9883C20.9766 11.2148 20.3555 10.6055 19.582 10.6055C19.1953 10.6055 18.8672 10.7461 18.6094 11.0039L9.49219 19.9102C9.16406 20.2148 9.01172 20.5898 9 21C9 21.4102 9.16406 21.7617 9.49219 22.0781L18.6094 30.9961Z" fill="#23853B"/>
<path d="M33.4056 20.812C34.1309 20.9593 34.7146 21.305 35.1566 21.849C35.6099 22.393 35.8366 23.0277 35.8366 23.753C35.8366 24.7503 35.5022 25.5437 34.8336 26.133C34.1649 26.711 33.1959 27 31.9266 27H27.1496V14.998H31.8416C33.0429 14.998 33.9609 15.27 34.5956 15.814C35.2416 16.3467 35.5646 17.0833 35.5646 18.024C35.5646 18.7833 35.3662 19.401 34.9696 19.877C34.5729 20.3417 34.0516 20.6533 33.4056 20.812ZM29.0876 20.166H31.4846C32.1646 20.166 32.6802 20.0073 33.0316 19.69C33.3942 19.3727 33.5756 18.9307 33.5756 18.364C33.5756 17.8087 33.3942 17.3723 33.0316 17.055C32.6802 16.7377 32.1419 16.579 31.4166 16.579H29.0876V20.166ZM31.5356 25.402C32.2722 25.402 32.8389 25.2377 33.2356 24.909C33.6436 24.569 33.8476 24.0987 33.8476 23.498C33.8476 22.8973 33.6436 22.427 33.2356 22.087C32.8276 21.747 32.2552 21.577 31.5186 21.577H29.0876V25.402H31.5356ZM41.0074 17.514C41.8574 17.514 42.5827 17.7237 43.1834 18.143C43.784 18.5623 44.209 19.1177 44.4584 19.809V17.633H46.3964V27H44.4584V24.824C44.209 25.5153 43.784 26.0707 43.1834 26.49C42.5827 26.9093 41.8574 27.119 41.0074 27.119C40.1914 27.119 39.4604 26.9263 38.8144 26.541C38.1797 26.1557 37.681 25.6003 37.3184 24.875C36.9557 24.1497 36.7744 23.294 36.7744 22.308C36.7744 21.3333 36.9557 20.4833 37.3184 19.758C37.681 19.0327 38.1797 18.4773 38.8144 18.092C39.4604 17.7067 40.1914 17.514 41.0074 17.514ZM41.6024 19.214C40.741 19.214 40.0497 19.4917 39.5284 20.047C39.0184 20.591 38.7634 21.3447 38.7634 22.308C38.7634 23.2713 39.0184 24.0307 39.5284 24.586C40.0497 25.13 40.741 25.402 41.6024 25.402C42.1464 25.402 42.6337 25.2773 43.0644 25.028C43.495 24.7673 43.835 24.4047 44.0844 23.94C44.3337 23.4753 44.4584 22.9313 44.4584 22.308C44.4584 21.696 44.3337 21.1577 44.0844 20.693C43.835 20.217 43.495 19.8543 43.0644 19.605C42.6337 19.3443 42.1464 19.214 41.6024 19.214ZM52.479 17.514C53.6917 17.514 54.6947 17.837 55.488 18.483C56.2814 19.1177 56.7744 19.9847 56.967 21.084H54.91C54.7967 20.4947 54.519 20.0357 54.077 19.707C53.6464 19.367 53.1024 19.197 52.445 19.197C51.697 19.197 51.0737 19.4633 50.575 19.996C50.0764 20.5173 49.827 21.288 49.827 22.308C49.827 23.328 50.0764 24.1043 50.575 24.637C51.0737 25.1697 51.697 25.436 52.445 25.436C53.1024 25.436 53.6464 25.266 54.077 24.926C54.519 24.586 54.7967 24.1213 54.91 23.532H56.967C56.7744 24.6313 56.2814 25.504 55.488 26.15C54.6947 26.796 53.6917 27.119 52.479 27.119C51.5724 27.119 50.7677 26.9263 50.065 26.541C49.3737 26.1557 48.8297 25.6003 48.433 24.875C48.0364 24.1497 47.838 23.294 47.838 22.308C47.838 21.3333 48.0364 20.4833 48.433 19.758C48.8297 19.0327 49.3737 18.4773 50.065 18.092C50.7677 17.7067 51.5724 17.514 52.479 17.514ZM63.7354 27L60.3694 22.835V27H58.4314V14.42H60.3694V21.628L63.7014 17.633H66.0304L61.9504 22.291L66.1324 27H63.7354Z" fill="#23853B"/>
</svg>
