<?xml version="1.0" ?><svg width="334" height="200" viewBox="0 0 334 200" fill="none" xmlns="http://www.w3.org/2000/svg">
<path opacity="0.2" fill-rule="evenodd" clip-rule="evenodd" d="M113.867 42.6681C117.406 43.855 120.768 44.0057 123.149 43.1367C122.539 40.6807 120.534 37.9833 117.569 35.7195C118.759 32.1884 118.91 28.8331 118.039 26.4568C115.578 27.0652 112.875 29.0663 110.607 32.0249C107.069 30.838 103.707 30.6873 101.326 31.5564C101.935 34.0124 103.94 36.7097 106.905 38.9735C105.716 42.5046 105.565 45.8599 106.435 48.2362C108.896 47.6279 111.599 45.6267 113.867 42.6681ZM50.463 106.437C53.0305 106.687 55.3179 106.267 56.7859 105.312C55.9929 103.753 54.2224 102.248 51.8735 101.183C52.1242 98.6207 51.7033 96.3378 50.7467 94.8728C49.1843 95.6642 47.676 97.4312 46.6094 99.7754C44.0419 99.5251 41.7545 99.9453 40.2865 100.9C41.0796 102.459 42.85 103.964 45.1989 105.029C44.9482 107.591 45.3692 109.874 46.3257 111.339C47.8881 110.548 49.3964 108.781 50.463 106.437ZM237.361 140.015C235.637 139.557 233.759 138.115 232.199 136.005C229.693 136.797 227.325 136.862 225.66 136.221C226.119 134.5 227.564 132.626 229.678 131.068C228.885 128.568 228.82 126.205 229.462 124.543C231.187 125.001 233.064 126.443 234.625 128.553C237.13 127.761 239.498 127.696 241.163 128.337C240.704 130.058 239.259 131.933 237.145 133.49C237.938 135.99 238.003 138.353 237.361 140.015Z" fill="#23853B"/>
</svg>
