<?xml version="1.0" ?><svg width="150" height="150" viewBox="0 0 150 150" fill="none" xmlns="http://www.w3.org/2000/svg">
<path d="M100.781 117.188H96.0938V112.5C96.0938 109.915 98.1961 107.812 100.781 107.812H103.125C104.419 107.812 105.469 106.762 105.469 105.469V100.781C105.469 99.4875 104.419 98.4375 103.125 98.4375H98.4375C97.1438 98.4375 96.0938 99.4875 96.0938 100.781V103.125H91.4062V100.781C91.4062 96.9047 94.5609 93.75 98.4375 93.75H103.125C107.002 93.75 110.156 96.9047 110.156 100.781V105.469C110.156 109.345 107.002 112.5 103.125 112.5H100.781V117.188Z" fill="#3AC82E" fill-opacity="0.5"/>
<path d="M100.781 121.875H96.0938V126.562H100.781V121.875Z" fill="#3AC82E" fill-opacity="0.5"/>
<path d="M65.625 93.75C70.8027 93.75 75 89.5527 75 84.375C75 79.1973 70.8027 75 65.625 75C60.4473 75 56.25 79.1973 56.25 84.375C56.25 89.5527 60.4473 93.75 65.625 93.75Z" fill="#3AC82E" fill-opacity="0.5"/>
<path d="M107.812 85.3758V65.625C107.812 59.1633 102.555 53.9062 96.0938 53.9062H93.75V49.2188C93.75 46.6336 91.6477 44.5312 89.0625 44.5312H86.7188V35.1562C86.7188 23.5242 77.257 14.0625 65.625 14.0625C53.993 14.0625 44.5312 23.5242 44.5312 35.1562V44.5312H42.1875C39.6023 44.5312 37.5 46.6336 37.5 49.2188V53.9062H35.1562C28.6945 53.9062 23.4375 59.1633 23.4375 65.625V112.5C23.4375 118.962 28.6945 124.219 35.1562 124.219H79.2C83.8055 131.264 91.7508 135.938 100.781 135.938C114.996 135.938 126.562 124.371 126.562 110.156C126.562 98.3812 118.617 88.4461 107.812 85.3758ZM89.0625 53.9062H79.6875V49.2188H89.0625V53.9062ZM49.2188 35.1562C49.2188 26.1117 56.5805 18.75 65.625 18.75C74.6695 18.75 82.0312 26.1117 82.0312 35.1562V44.5312H79.6875C77.1023 44.5312 75 46.6336 75 49.2188V53.9062H56.25V49.2188C56.25 46.6336 54.1477 44.5312 51.5625 44.5312H49.2188V35.1562ZM42.1875 49.2188H51.5625V53.9062H42.1875V49.2188ZM35.1562 119.531C32.1047 119.531 29.5289 117.567 28.5586 114.844H51.5625V110.156H28.125V105.469H42.1875V100.781H28.125V65.625C28.125 61.7484 31.2797 58.5938 35.1562 58.5938H96.0938C99.9703 58.5938 103.125 61.7484 103.125 65.625V84.4945C102.352 84.4242 101.571 84.375 100.781 84.375C86.5664 84.375 75 95.9414 75 110.156C75 113.466 75.6492 116.62 76.7906 119.531H35.1562ZM100.781 131.25C89.1492 131.25 79.6875 121.788 79.6875 110.156C79.6875 98.5242 89.1492 89.0625 100.781 89.0625C112.413 89.0625 121.875 98.5242 121.875 110.156C121.875 121.788 112.413 131.25 100.781 131.25Z" fill="#23853B"/>
<path d="M77.3438 84.375C77.3438 77.9133 72.0867 72.6562 65.625 72.6562C59.1633 72.6562 53.9062 77.9133 53.9062 84.375C53.9062 88.1883 55.7648 91.5492 58.5938 93.6891V100.781C58.5938 103.366 60.6961 105.469 63.2812 105.469H67.9688C70.5539 105.469 72.6562 103.366 72.6562 100.781V93.6891C75.4852 91.5492 77.3438 88.1883 77.3438 84.375ZM67.9688 100.781H63.2812V95.857C64.0383 96.0117 64.8234 96.0938 65.625 96.0938C66.4266 96.0938 67.2117 96.0117 67.9688 95.857V100.781ZM65.625 91.4062C61.7484 91.4062 58.5938 88.2516 58.5938 84.375C58.5938 80.4984 61.7484 77.3438 65.625 77.3438C69.5016 77.3438 72.6562 80.4984 72.6562 84.375C72.6562 88.2516 69.5016 91.4062 65.625 91.4062Z" fill="#23853B"/>
</svg>
