<?xml version="1.0" ?><svg width="180" height="21" viewBox="0 0 180 21" fill="none" xmlns="http://www.w3.org/2000/svg">
<path d="M36.518 10.114C36.518 13.04 38.744 15.084 41.488 15.084C43.518 15.084 45.268 14.076 46.01 12.172H44.092C43.574 13.208 42.65 13.698 41.488 13.698C39.556 13.698 38.156 12.312 38.156 10.114C38.156 7.916 39.556 6.544 41.488 6.544C42.65 6.544 43.574 7.034 44.092 8.07H46.01C45.268 6.166 43.518 5.144 41.488 5.144C38.744 5.144 36.518 7.202 36.518 10.114ZM55.2281 11.136C55.2281 8.714 53.4921 7.16 51.2941 7.16C49.0961 7.16 47.3601 8.714 47.3601 11.136C47.3601 13.558 49.0261 15.126 51.2241 15.126C53.4361 15.126 55.2281 13.558 55.2281 11.136ZM48.9841 11.136C48.9841 9.386 50.0621 8.546 51.2661 8.546C52.4561 8.546 53.5901 9.386 53.5901 11.136C53.5901 12.886 52.4141 13.74 51.2241 13.74C50.0201 13.74 48.9841 12.886 48.9841 11.136ZM62.2799 15H63.8619V10.45C63.8619 8.294 62.5039 7.16 60.6979 7.16C59.7739 7.16 58.9199 7.538 58.4019 8.168V7.286H56.8059V15H58.4019V10.688C58.4019 9.274 59.1719 8.546 60.3479 8.546C61.5099 8.546 62.2799 9.274 62.2799 10.688V15ZM66.1497 12.858C66.1497 14.426 67.0037 15 68.3757 15H69.6357V13.67H68.6557C67.9837 13.67 67.7597 13.432 67.7597 12.858V8.588H69.6357V7.286H67.7597V5.368H66.1497V7.286H65.2397V8.588H66.1497V12.858ZM71.1066 15H72.7026V7.286H71.1066V15ZM71.9186 6.264C72.4786 6.264 72.9266 5.816 72.9266 5.242C72.9266 4.668 72.4786 4.22 71.9186 4.22C71.3446 4.22 70.8966 4.668 70.8966 5.242C70.8966 5.816 71.3446 6.264 71.9186 6.264ZM80.272 15H81.854V10.45C81.854 8.294 80.496 7.16 78.69 7.16C77.766 7.16 76.912 7.538 76.394 8.168V7.286H74.798V15H76.394V10.688C76.394 9.274 77.164 8.546 78.34 8.546C79.502 8.546 80.272 9.274 80.272 10.688V15ZM90.8758 7.286H89.2798V11.584C89.2798 12.998 88.5098 13.726 87.3338 13.726C86.1718 13.726 85.4018 12.998 85.4018 11.584V7.286H83.8198V11.822C83.8198 13.978 85.1918 15.112 86.9978 15.112C87.9078 15.112 88.7758 14.734 89.2798 14.076V15H90.8758V7.286ZM96.2296 8.504C97.4196 8.504 98.3576 9.26 98.3856 10.45H94.1156C94.2836 9.232 95.1516 8.504 96.2296 8.504ZM99.8416 12.704H98.1196C97.8256 13.306 97.2796 13.782 96.2996 13.782C95.1236 13.782 94.2136 13.012 94.1016 11.738H99.9956C100.038 11.472 100.052 11.22 100.052 10.954C100.052 8.686 98.4976 7.16 96.2996 7.16C94.0176 7.16 92.4496 8.714 92.4496 11.136C92.4496 13.558 94.0876 15.126 96.2996 15.126C98.1896 15.126 99.4076 14.048 99.8416 12.704ZM104.727 11.108C104.727 13.488 106.337 15.126 108.339 15.126C109.627 15.126 110.551 14.51 111.041 13.852V15H112.651V7.286H111.041V8.406C110.565 7.776 109.669 7.16 108.367 7.16C106.337 7.16 104.727 8.728 104.727 11.108ZM111.041 11.136C111.041 12.802 109.907 13.74 108.703 13.74C107.513 13.74 106.365 12.774 106.365 11.108C106.365 9.442 107.513 8.546 108.703 8.546C109.907 8.546 111.041 9.484 111.041 11.136ZM120.501 12.844C120.417 10.058 116.063 10.926 116.063 9.372C116.063 8.854 116.511 8.504 117.365 8.504C118.233 8.504 118.751 8.966 118.807 9.638H120.403C120.319 8.098 119.171 7.16 117.421 7.16C115.601 7.16 114.453 8.154 114.453 9.386C114.453 12.214 118.933 11.346 118.933 12.858C118.933 13.39 118.443 13.782 117.519 13.782C116.637 13.782 116.035 13.264 115.979 12.634H114.327C114.397 14.034 115.699 15.126 117.547 15.126C119.367 15.126 120.501 14.146 120.501 12.844ZM125.331 11.108C125.331 13.488 126.941 15.126 128.943 15.126C130.231 15.126 131.155 14.51 131.645 13.852V15H133.255V7.286H131.645V8.406C131.169 7.776 130.273 7.16 128.971 7.16C126.941 7.16 125.331 8.728 125.331 11.108ZM131.645 11.136C131.645 12.802 130.511 13.74 129.307 13.74C128.117 13.74 126.969 12.774 126.969 11.108C126.969 9.442 128.117 8.546 129.307 8.546C130.511 8.546 131.645 9.484 131.645 11.136ZM143.426 5.144C140.682 5.144 138.456 7.202 138.456 10.114C138.456 13.04 140.682 15.084 143.426 15.084C146.044 15.084 147.948 13.166 148.242 10.912V9.666H142.88V10.94H146.534C146.296 12.578 145.19 13.642 143.426 13.642C141.494 13.642 140.094 12.256 140.094 10.114C140.094 7.972 141.494 6.6 143.426 6.6C144.588 6.6 145.512 7.09 146.03 8.07H147.948C147.206 6.166 145.456 5.144 143.426 5.144ZM156.802 7.286H155.206V11.584C155.206 12.998 154.436 13.726 153.26 13.726C152.098 13.726 151.328 12.998 151.328 11.584V7.286H149.746V11.822C149.746 13.978 151.118 15.112 152.924 15.112C153.834 15.112 154.702 14.734 155.206 14.076V15H156.802V7.286ZM162.155 8.504C163.345 8.504 164.283 9.26 164.311 10.45H160.041C160.209 9.232 161.077 8.504 162.155 8.504ZM165.767 12.704H164.045C163.751 13.306 163.205 13.782 162.225 13.782C161.049 13.782 160.139 13.012 160.027 11.738H165.921C165.963 11.472 165.977 11.22 165.977 10.954C165.977 8.686 164.423 7.16 162.225 7.16C159.943 7.16 158.375 8.714 158.375 11.136C158.375 13.558 160.013 15.126 162.225 15.126C164.115 15.126 165.333 14.048 165.767 12.704ZM173.302 12.844C173.218 10.058 168.864 10.926 168.864 9.372C168.864 8.854 169.312 8.504 170.166 8.504C171.034 8.504 171.552 8.966 171.608 9.638H173.204C173.12 8.098 171.972 7.16 170.222 7.16C168.402 7.16 167.254 8.154 167.254 9.386C167.254 12.214 171.734 11.346 171.734 12.858C171.734 13.39 171.244 13.782 170.32 13.782C169.438 13.782 168.836 13.264 168.78 12.634H167.128C167.198 14.034 168.5 15.126 170.348 15.126C172.168 15.126 173.302 14.146 173.302 12.844ZM175.279 12.858C175.279 14.426 176.133 15 177.505 15H178.765V13.67H177.785C177.113 13.67 176.889 13.432 176.889 12.858V8.588H178.765V7.286H176.889V5.368H175.279V7.286H174.369V8.588H175.279V12.858Z" fill="white"/>
<path d="M11.2701 10.5895C12.2666 9.69832 12.8577 8.43998 12.9072 7.10397C12.9568 5.76801 12.4607 4.46921 11.5331 3.50645C10.6054 2.5439 9.32609 2 7.98916 2C6.65222 2 5.37289 2.54394 4.44524 3.50645C3.5176 4.46921 3.02155 5.76796 3.0711 7.10397C3.12069 8.43994 3.71172 9.69832 4.70821 10.5895C3.33373 11.0709 2.14267 11.9669 1.29934 13.1541C0.456012 14.3411 0.00209942 15.7608 0 17.2172C0 17.5179 0.160586 17.796 0.421104 17.9465C0.681622 18.0968 1.00259 18.0968 1.26312 17.9465C1.52382 17.796 1.68422 17.5179 1.68422 17.2172C1.68575 15.7992 2.24969 14.4397 3.25229 13.4371C4.25488 12.4345 5.61433 11.8706 7.03212 11.8691H8.96787C10.3859 11.8706 11.7453 12.4345 12.7479 13.4371C13.7505 14.4397 14.3145 15.7992 14.316 17.2172C14.316 17.5179 14.4764 17.796 14.7369 17.9465C14.9974 18.0968 15.3186 18.0968 15.5791 17.9465C15.8396 17.796 16 17.5179 16 17.2172C15.9966 15.7582 15.5394 14.3366 14.6919 13.1492C13.8443 11.9618 12.6485 11.0671 11.27 10.5895H11.2701ZM7.98921 3.72689C8.84342 3.72689 9.66254 4.06618 10.2666 4.67016C10.8708 5.27416 11.2101 6.09347 11.2101 6.94769C11.2101 7.80191 10.8708 8.62102 10.2666 9.22507C9.66259 9.82906 8.84347 10.1683 7.98921 10.1683C7.13494 10.1683 6.31587 9.82905 5.71183 9.22507C5.10763 8.62107 4.76836 7.80196 4.76836 6.94769C4.76836 6.09342 5.10764 5.27416 5.71183 4.67016C6.31582 4.06617 7.13494 3.72689 7.98921 3.72689Z" fill="white"/>
<line x1="26.5" y1="1" x2="26.5" y2="19" stroke="white"/>
</svg>

