<?xml version="1.0" ?><svg width="250" height="130" viewBox="0 0 250 130" fill="none" xmlns="http://www.w3.org/2000/svg">
<path fill-rule="evenodd" clip-rule="evenodd" d="M246.116 62.5619C245.687 62.5619 245.34 62.118 245.34 61.5711V55.7864C245.34 55.2387 245.687 54.7948 246.116 54.7948C246.545 54.7948 246.893 55.2387 246.893 55.7864V61.5711C246.893 62.118 246.545 62.5619 246.116 62.5619Z" fill="#23853B"/>
<path fill-rule="evenodd" clip-rule="evenodd" d="M250 58.6785C250 59.1072 249.555 59.455 249.008 59.455H243.224C242.677 59.455 242.232 59.1072 242.232 58.6785C242.232 58.2498 242.677 57.9028 243.224 57.9028H249.008C249.555 57.9028 250 58.2498 250 58.6785Z" fill="#23853B"/>
<path fill-rule="evenodd" clip-rule="evenodd" d="M55.7461 129.631C55.1039 129.631 54.5829 129.11 54.5829 128.466C54.5829 127.822 55.1039 127.3 55.7461 127.3C56.3891 127.3 56.9101 127.822 56.9101 128.466C56.9101 129.11 56.3891 129.631 55.7461 129.631Z" fill="#23853B"/>
<path fill-rule="evenodd" clip-rule="evenodd" d="M191.517 30.4721C190.875 30.4721 190.354 29.9511 190.354 29.3073C190.354 28.6636 190.875 28.1418 191.517 28.1418C192.16 28.1418 192.681 28.6636 192.681 29.3073C192.681 29.9511 192.16 30.4721 191.517 30.4721Z" fill="#23853B"/>
<path fill-rule="evenodd" clip-rule="evenodd" d="M49.8787 44.9116C49.5545 45.2061 49.5286 45.7102 49.82 46.0344L52.8214 49.3951C52.9686 49.5576 53.1624 49.6461 53.3653 49.6568C53.5674 49.6674 53.7718 49.5996 53.9328 49.4531C54.2562 49.1579 54.2821 48.6568 53.9915 48.3303L50.9893 44.9688C50.8444 44.8079 50.6476 44.7194 50.4454 44.7087C50.2448 44.6988 50.0397 44.7667 49.8787 44.9116Z" fill="#23853B"/>
<path fill-rule="evenodd" clip-rule="evenodd" d="M53.9331 44.9116C54.2565 45.2061 54.2824 45.7102 53.9911 46.0344L50.9896 49.3951C50.8424 49.5576 50.6487 49.6461 50.4458 49.6568C50.2436 49.6674 50.04 49.5996 49.8783 49.4531C49.5549 49.1579 49.5289 48.6568 49.8195 48.3303L52.8218 44.9688C52.9667 44.8079 53.1635 44.7194 53.3656 44.7087C53.5662 44.6988 53.7714 44.7667 53.9331 44.9116Z" fill="#23853B"/>
<path fill-rule="evenodd" clip-rule="evenodd" d="M0.697159 33.922H41.205C41.5902 33.922 41.9021 34.2339 41.9021 34.6191V34.7778C41.9021 35.163 41.5902 35.4749 41.205 35.4749H0.697159C0.311966 35.4749 0 35.163 0 34.7778V34.6191C0 34.2339 0.311966 33.922 0.697159 33.922Z" fill="#23853B"/>
<path fill-rule="evenodd" clip-rule="evenodd" d="M67.2836 8.12598H91.0107C91.3959 8.12598 91.7079 8.43871 91.7079 8.8239V8.98255C91.7079 9.36698 91.3959 9.67972 91.0107 9.67972H67.2836C66.8984 9.67972 66.5864 9.36698 66.5864 8.98255V8.8239C66.5864 8.43871 66.8984 8.12598 67.2836 8.12598Z" fill="#23853B"/>
<path opacity="0.5" fill-rule="evenodd" clip-rule="evenodd" d="M189.234 122.562H76.8516V54.3063C76.8516 51.5634 79.075 49.3407 74.1896 49.3407H176.642C187.011 49.3407 189.234 51.5634 189.234 54.3063V122.562Z" fill="#23853B"/>
<path fill-rule="evenodd" clip-rule="evenodd" d="M80.532 118.883V54.3061C80.532 53.5975 81.1079 53.0209 81.8172 53.0209H184.269C184.978 53.0209 185.554 53.5975 185.554 54.3061V118.883H80.532Z" fill="white"/>
<path opacity="0.4" fill-rule="evenodd" clip-rule="evenodd" d="M151.377 116.955V121.441H114.522V116.955H68.9761V123.684C68.8487 126.031 70.7312 128.035 71.8746 128.17H191.397C195.168 128.035 197.05 126.031 196.923 123.684V116.955H151.377Z" fill="#3AC82E" fill-opacity="0.5"/>
<path fill-rule="evenodd" clip-rule="evenodd" d="M156.58 50.0345H161.521C162.179 50.0345 162.712 49.5014 162.712 48.8431C162.712 48.1848 162.179 47.6509 161.521 47.6509H156.58C155.922 47.6509 155.389 48.1848 155.389 48.8431C155.389 49.5014 155.922 50.0345 156.58 50.0345Z" fill="#23853B"/>
<path fill-rule="evenodd" clip-rule="evenodd" d="M184.412 47.6513H181.208C180.551 47.6513 180.016 48.1852 180.016 48.8427C180.016 49.501 180.551 50.0349 181.208 50.0349H184.413C186.227 50.0372 187.704 51.5139 187.706 53.3285V115.764H150.768C150.109 115.764 149.576 116.297 149.576 116.955V120.25H116.072V116.955C116.072 116.297 115.538 115.764 114.881 115.764H77.9413V103.565C77.9413 102.97 77.5371 102.419 76.9513 102.323C76.2061 102.2 75.5585 102.775 75.5585 103.497V116.955C75.5585 117.613 76.0916 118.147 76.7507 118.147H113.689V121.441C113.689 122.1 114.223 122.633 114.88 122.633H150.768C151.425 122.633 151.959 122.1 151.959 121.441V118.147H188.898C189.557 118.147 190.09 117.614 190.09 116.956V53.33C190.086 50.202 187.539 47.6544 184.412 47.6513Z" fill="#23853B"/>
<path fill-rule="evenodd" clip-rule="evenodd" d="M76.9514 86.7289C77.5372 86.6327 77.9415 86.0805 77.9415 85.4871V53.3269C77.9437 51.5146 79.4212 50.0371 81.2358 50.0348H132.766C133.424 50.0348 133.958 49.5009 133.958 48.8434C133.958 48.1851 133.424 47.6512 132.766 47.6512H81.2373C78.1093 47.6543 75.5616 50.2019 75.5586 53.3284V85.5534C75.5586 86.2773 76.2054 86.8517 76.9514 86.7289Z" fill="#23853B"/>
<path fill-rule="evenodd" clip-rule="evenodd" d="M68.9693 123.684C68.9723 125.499 70.449 126.976 72.2621 126.978H193.384C195.199 126.976 196.676 125.499 196.679 123.685V118.147H151.96V121.441C151.96 122.098 151.425 122.632 150.767 122.632H114.88C114.223 122.632 113.688 122.098 113.688 121.441V118.147H68.9693V123.684ZM72.2636 129.361C69.1371 129.358 66.5902 126.811 66.5864 123.683V116.955C66.5864 116.298 67.1204 115.764 67.7779 115.764H114.88C115.537 115.764 116.072 116.298 116.072 116.955V120.25H149.576V116.955C149.576 116.298 150.111 115.764 150.767 115.764H197.869C198.527 115.764 199.062 116.298 199.062 116.955V123.684C199.058 126.811 196.511 129.358 193.383 129.361H193.384H72.2636Z" fill="#23853B"/>
<path opacity="0.5" fill-rule="evenodd" clip-rule="evenodd" d="M142.371 64.8077C142.371 60.1358 138.936 56.2679 134.455 55.5875C134.401 55.5791 134.347 55.573 134.295 55.5654C134.2 55.5532 134.106 55.5402 134.011 55.5303C133.929 55.5219 133.846 55.5158 133.764 55.5097C133.689 55.5044 133.615 55.4975 133.54 55.4937C133.524 55.4929 133.509 55.4906 133.494 55.4899C133.428 55.4868 133.364 55.4876 133.299 55.4861C133.214 55.4838 133.129 55.4807 133.044 55.4807C132.957 55.4807 132.872 55.4838 132.787 55.4861C132.722 55.4876 132.658 55.4868 132.593 55.4899C132.577 55.4906 132.562 55.4929 132.546 55.4937C132.472 55.4975 132.397 55.5044 132.322 55.5097C132.24 55.5158 132.157 55.5219 132.075 55.5303C131.98 55.5402 131.886 55.5532 131.792 55.5654C131.739 55.573 131.684 55.5791 131.632 55.5875C127.15 56.2679 123.715 60.1358 123.715 64.8077C123.715 64.8359 123.718 64.8642 123.719 64.8924C123.718 64.9519 123.715 65.0114 123.715 65.0709V69.7824H127.447V64.9992C127.447 62.299 129.292 59.9093 131.848 59.3403C131.851 59.3395 131.854 59.3387 131.858 59.338C131.923 59.3235 131.989 59.3113 132.057 59.2991C132.092 59.293 132.129 59.2861 132.166 59.28C132.211 59.2731 132.256 59.2663 132.302 59.2609C132.356 59.2533 132.408 59.2472 132.462 59.2419C132.503 59.2373 132.542 59.2335 132.583 59.2304C132.636 59.2266 132.689 59.2228 132.742 59.2198C132.792 59.2175 132.843 59.2152 132.893 59.2144C132.944 59.2129 132.993 59.2121 133.044 59.2121C133.093 59.2121 133.143 59.2129 133.193 59.2144C133.243 59.2152 133.294 59.2175 133.344 59.2198C133.397 59.2228 133.451 59.2266 133.504 59.2304C133.544 59.2335 133.584 59.2373 133.624 59.2419C133.677 59.2472 133.731 59.2533 133.783 59.2609C133.829 59.2663 133.874 59.2731 133.919 59.28C133.957 59.2861 133.993 59.293 134.03 59.2991C134.096 59.3113 134.163 59.3235 134.229 59.338C134.232 59.3387 134.234 59.3395 134.237 59.3403C136.795 59.9093 138.64 62.299 138.64 64.9992V69.7824H142.371V65.0709C142.371 65.0114 142.368 64.9519 142.367 64.8924C142.368 64.8642 142.371 64.8359 142.371 64.8077Z" fill="#3AC82E" fill-opacity="0.5"/>
<path fill-rule="evenodd" clip-rule="evenodd" d="M141.501 68.9117H139.511V67.7576L139.508 64.6364C139.428 61.6273 137.286 59.1247 134.445 58.4947C134.427 58.4901 134.407 58.4855 134.389 58.4817C134.334 58.4695 134.277 58.4596 134.221 58.4489C134.165 58.439 134.11 58.4283 134.053 58.4192C134.02 58.4138 133.987 58.41 133.954 58.4054C133.878 58.394 133.802 58.3841 133.725 58.3757C133.699 58.3734 133.672 58.3711 133.646 58.3688C133.588 58.3635 133.531 58.3566 133.472 58.3528C133.454 58.352 133.436 58.352 133.418 58.3513C133.293 58.3444 133.169 58.3398 133.043 58.3398C132.917 58.3398 132.792 58.3444 132.668 58.3513C132.65 58.352 132.632 58.352 132.615 58.3528C132.556 58.3566 132.498 58.3635 132.441 58.3688C132.414 58.3711 132.388 58.3734 132.361 58.3757C132.284 58.3841 132.208 58.394 132.132 58.4054C132.099 58.41 132.066 58.4138 132.033 58.4192C131.977 58.4283 131.92 58.439 131.865 58.4489C131.809 58.4596 131.753 58.4695 131.697 58.4817C131.679 58.4855 131.66 58.4901 131.641 58.4947C128.748 59.1369 126.578 61.7204 126.576 64.8027V66.5349V68.9117H124.584V66.5349L124.593 64.7707C124.728 60.6754 127.573 57.2872 131.377 56.5161C131.436 56.5039 131.496 56.4947 131.555 56.484C131.628 56.4703 131.701 56.4566 131.775 56.4451C131.874 56.4307 131.975 56.4192 132.075 56.407C132.113 56.4032 132.15 56.3971 132.189 56.3933C132.292 56.3826 132.396 56.3757 132.499 56.3696C132.539 56.3673 132.578 56.3628 132.618 56.3605C132.759 56.3544 132.901 56.3498 133.043 56.3498C133.186 56.3498 133.328 56.3544 133.469 56.3605C133.509 56.3628 133.547 56.3673 133.587 56.3696C133.691 56.3757 133.795 56.3826 133.898 56.3933C133.936 56.3971 133.974 56.4032 134.012 56.407C134.112 56.4192 134.212 56.4307 134.311 56.4451C134.386 56.4566 134.458 56.4703 134.531 56.484C134.59 56.4947 134.651 56.5039 134.71 56.5161C138.471 57.2788 141.296 60.6014 141.487 64.6364C141.487 64.6364 141.495 64.8858 141.495 64.8912V66.3869C141.498 66.3854 141.5 66.3847 141.501 66.3831V68.9117ZM142.372 64.808C142.372 59.9699 138.688 55.9921 133.972 55.5253C133.915 55.5199 133.857 55.5169 133.799 55.5123C133.701 55.5047 133.603 55.4955 133.504 55.4909C133.501 55.4909 133.497 55.4902 133.494 55.4902C133.343 55.4833 133.192 55.4795 133.043 55.4795C132.894 55.4795 132.743 55.4833 132.592 55.4902C132.589 55.4902 132.586 55.4909 132.583 55.4909C132.483 55.4955 132.386 55.5047 132.287 55.5123C132.229 55.5169 132.172 55.5199 132.114 55.5253C127.4 55.9921 123.715 59.9699 123.715 64.808C123.715 64.8363 123.718 64.8637 123.719 64.8919C123.718 64.9522 123.715 65.0109 123.715 65.0712V69.7827H127.446V64.9995C127.446 62.2253 129.394 59.7799 132.061 59.2979C132.09 59.2933 132.12 59.2872 132.149 59.2826C132.196 59.275 132.242 59.2689 132.29 59.2628C132.338 59.2559 132.388 59.249 132.437 59.2437C132.477 59.2391 132.518 59.2361 132.558 59.233C132.608 59.2285 132.657 59.2246 132.707 59.2216C132.82 59.2147 132.933 59.2109 133.043 59.2109C133.154 59.2109 133.267 59.2147 133.38 59.2216C133.429 59.2246 133.478 59.2285 133.528 59.233C133.569 59.2361 133.609 59.2391 133.65 59.2437C133.699 59.249 133.747 59.2559 133.796 59.2628C133.843 59.2689 133.891 59.275 133.937 59.2826C133.967 59.2872 133.996 59.2933 134.026 59.2979C136.692 59.7799 138.64 62.2253 138.64 64.9995V69.7827H142.372V65.0712C142.372 65.0109 142.369 64.9522 142.367 64.8919C142.369 64.8637 142.372 64.8363 142.372 64.808Z" fill="#23853B"/>
<path opacity="0.3" fill-rule="evenodd" clip-rule="evenodd" d="M139.262 85.9516H126.824C123.388 85.9516 120.605 83.1683 120.605 79.7328V71.0267C120.605 69.653 121.719 68.5386 123.093 68.5386H142.994C144.367 68.5386 145.48 69.653 145.48 71.0267V79.7328C145.48 83.1683 142.697 85.9516 139.262 85.9516Z" fill="#3AC82E" fill-opacity="0.5"/>
<path fill-rule="evenodd" clip-rule="evenodd" d="M121.227 75.6899H144.858V71.648H121.227V75.6899Z" fill="#3AC82E" fill-opacity="0.5"/>
<path fill-rule="evenodd" clip-rule="evenodd" d="M121.227 72.2697H144.858V71.648H121.227V72.2697Z" fill="white"/>
<path fill-rule="evenodd" clip-rule="evenodd" d="M134.286 79.1109C134.286 78.4237 133.73 77.8676 133.043 77.8676C132.356 77.8676 131.799 78.4237 131.799 79.1109C131.799 79.5167 131.997 79.8737 132.298 80.101L131.799 82.8424H134.286L133.789 80.101C134.089 79.8737 134.286 79.5167 134.286 79.1109Z" fill="#FCFDFF"/>
<path fill-rule="evenodd" clip-rule="evenodd" d="M142.993 68.5388H123.093C121.718 68.5388 120.605 69.6524 120.605 71.0262V79.7331C120.605 83.1678 123.389 85.9518 126.824 85.9518H139.262C142.697 85.9518 145.481 83.1678 145.481 79.7331V71.0262C145.481 69.6524 144.367 68.5388 142.993 68.5388ZM142.993 69.4099C143.885 69.4099 144.61 70.1345 144.61 71.0262V79.7331C144.61 82.6819 142.212 85.0808 139.262 85.0808H126.824C123.876 85.0808 121.476 82.6819 121.476 79.7331V71.0262C121.476 70.1345 122.201 69.4099 123.093 69.4099H142.993Z" fill="#23853B"/>
<path fill-rule="evenodd" clip-rule="evenodd" d="M133.043 77.8674C132.356 77.8674 131.799 78.4234 131.799 79.1107C131.799 79.5164 131.998 79.8734 132.297 80.1007L131.799 82.8421H134.287L133.789 80.1007C134.089 79.8734 134.287 79.5164 134.287 79.1107C134.287 78.4234 133.731 77.8674 133.043 77.8674ZM133.043 78.0847C133.609 78.0847 134.07 78.5447 134.07 79.1107C134.07 79.4325 133.918 79.7292 133.658 79.9276C133.593 79.9771 133.56 80.0595 133.573 80.1396L134.026 82.6247H132.061L132.512 80.1396C132.527 80.0595 132.494 79.9771 132.429 79.9276C132.168 79.7292 132.017 79.4325 132.017 79.1107C132.017 78.5447 132.477 78.0847 133.043 78.0847ZM144.858 76.0017H121.227C121.056 76.0017 120.917 75.8621 120.917 75.6904C120.917 75.5196 121.056 75.38 121.227 75.38H144.858C145.03 75.38 145.17 75.5196 145.17 75.6904C145.17 75.8621 145.03 76.0017 144.858 76.0017ZM137.707 72.2702H121.227C121.056 72.2702 120.917 72.1307 120.917 71.959C120.917 71.7882 121.056 71.6486 121.227 71.6486H137.707C137.878 71.6486 138.018 71.7882 138.018 71.959C138.018 72.1307 137.878 72.2702 137.707 72.2702ZM140.817 72.2702H139.573C139.402 72.2702 139.262 72.1307 139.262 71.959C139.262 71.7882 139.402 71.6486 139.573 71.6486H140.817C140.988 71.6486 141.128 71.7882 141.128 71.959C141.128 72.1307 140.988 72.2702 140.817 72.2702ZM144.858 72.2702H142.682C142.511 72.2702 142.371 72.1307 142.371 71.959C142.371 71.7882 142.511 71.6486 142.682 71.6486H144.858C145.03 71.6486 145.17 71.7882 145.17 71.959C145.17 72.1307 145.03 72.2702 144.858 72.2702Z" fill="#23853B"/>
<path fill-rule="evenodd" clip-rule="evenodd" d="M158.437 103.7H107.649C104 103.7 101.042 100.742 101.042 97.0921C101.042 93.443 104 90.4843 107.649 90.4843H158.437C162.086 90.4843 165.044 93.443 165.044 97.0921C165.044 100.742 162.086 103.7 158.437 103.7Z" fill="#3AC82E" fill-opacity="0.06"/>
<path fill-rule="evenodd" clip-rule="evenodd" d="M158.437 103.7H107.649C104 103.7 101.042 100.742 101.042 97.0921C101.042 93.443 104 90.4843 107.649 90.4843H158.437C162.086 90.4843 165.044 93.443 165.044 97.0921C165.044 100.742 162.086 103.7 158.437 103.7V103.7Z" stroke="#23853B" stroke-width="1.723"/>
<path fill-rule="evenodd" clip-rule="evenodd" d="M110.205 95.6563L109.237 96.9293V96.9499L110.776 96.7462V97.4381L109.237 97.255V97.2764L110.216 98.4975L109.574 98.8644L108.963 97.4381H108.942L108.281 98.8743L107.7 98.5082L108.667 97.2649V97.2451L107.16 97.4381V96.7462L108.658 96.9392V96.9194L107.7 95.6761L108.321 95.3207L108.952 96.7363H108.973L109.593 95.31L110.205 95.6563Z" fill="#23853B"/>
<path fill-rule="evenodd" clip-rule="evenodd" d="M114.434 95.6563L113.466 96.9293V96.9499L115.004 96.7462V97.4381L113.466 97.255V97.2764L114.445 98.4975L113.802 98.8644L113.191 97.4381H113.171L112.509 98.8743L111.929 98.5082L112.895 97.2649V97.2451L111.389 97.4381V96.7462L112.886 96.9392V96.9194L111.929 95.6761L112.55 95.3207L113.181 96.7363H113.202L113.823 95.31L114.434 95.6563Z" fill="#23853B"/>
<path fill-rule="evenodd" clip-rule="evenodd" d="M118.663 95.6563L117.695 96.9293V96.9499L119.233 96.7462V97.4381L117.695 97.255V97.2764L118.673 98.4975L118.031 98.8644L117.42 97.4381H117.4L116.738 98.8743L116.158 98.5082L117.125 97.2649V97.2451L115.618 97.4381V96.7462L117.115 96.9392V96.9194L116.158 95.6761L116.779 95.3207L117.41 96.7363H117.431L118.052 95.31L118.663 95.6563Z" fill="#23853B"/>
<path fill-rule="evenodd" clip-rule="evenodd" d="M122.891 95.6563L121.924 96.9293V96.9499L123.462 96.7462V97.4381L121.924 97.255V97.2764L122.902 98.4975L122.26 98.8644L121.649 97.4381H121.629L120.967 98.8743L120.386 98.5082L121.354 97.2649V97.2451L119.846 97.4381V96.7462L121.344 96.9392V96.9194L120.386 95.6761L121.007 95.3207L121.639 96.7363H121.659L122.28 95.31L122.891 95.6563Z" fill="#23853B"/>
<path fill-rule="evenodd" clip-rule="evenodd" d="M34.7539 127.689H52.379C52.7642 127.689 53.0761 128.001 53.0761 128.386V128.545C53.0761 128.93 52.7642 129.242 52.379 129.242H34.7539C34.3687 129.242 34.0568 128.93 34.0568 128.545V128.386C34.0568 128.001 34.3687 127.689 34.7539 127.689Z" fill="#23853B"/>
<path fill-rule="evenodd" clip-rule="evenodd" d="M221.749 127.689H247.002C247.387 127.689 247.699 128.001 247.699 128.386V128.545C247.699 128.93 247.387 129.242 247.002 129.242H221.749C221.364 129.242 221.052 128.93 221.052 128.545V128.386C221.052 128.001 221.364 127.689 221.749 127.689Z" fill="#23853B"/>
<path fill-rule="evenodd" clip-rule="evenodd" d="M213.359 57.9019H238.611C238.996 57.9019 239.308 58.2139 239.308 58.5991V58.7585C239.308 59.1429 238.996 59.4557 238.611 59.4557H213.359C212.973 59.4557 212.661 59.1429 212.661 58.7585V58.5991C212.661 58.2139 212.973 57.9019 213.359 57.9019Z" fill="#23853B"/>
<path fill-rule="evenodd" clip-rule="evenodd" d="M208.782 127.755H218.017C218.402 127.755 218.714 128.067 218.714 128.452V128.61C218.714 128.996 218.402 129.308 218.017 129.308H208.782C208.397 129.308 208.085 128.996 208.085 128.61V128.452C208.085 128.067 208.397 127.755 208.782 127.755Z" fill="#23853B"/>
<path fill-rule="evenodd" clip-rule="evenodd" d="M76.8517 92.1676C76.2094 92.1676 75.6885 91.6467 75.6885 91.0029C75.6885 90.3599 76.2094 89.8374 76.8517 89.8374C77.4947 89.8374 78.0156 90.3599 78.0156 91.0029C78.0156 91.6467 77.4947 92.1676 76.8517 92.1676Z" fill="#23853B"/>
<path fill-rule="evenodd" clip-rule="evenodd" d="M166.351 3.16327C166.263 3.70559 166.63 4.22122 167.169 4.31199L172.74 5.27306C173.01 5.31883 173.269 5.25475 173.477 5.10678C173.683 4.95957 173.832 4.73379 173.875 4.46377C173.964 3.92145 173.598 3.40888 173.058 3.31506L167.487 2.35398C167.22 2.30898 166.957 2.37458 166.75 2.52179C166.546 2.66824 166.396 2.89478 166.351 3.16327Z" fill="#23853B"/>
<path fill-rule="evenodd" clip-rule="evenodd" d="M170.334 0.00192651C170.883 0.0385389 171.301 0.513737 171.267 1.05987L170.938 6.70276C170.922 6.97659 170.8 7.21457 170.608 7.38314C170.418 7.55018 170.165 7.644 169.892 7.62493C169.344 7.58832 168.927 7.11617 168.959 6.56699L169.288 0.924101C169.305 0.653322 169.429 0.413053 169.62 0.245246C169.808 0.0789651 170.063 -0.0148542 170.334 0.00192651Z" fill="#23853B"/>
<path fill-rule="evenodd" clip-rule="evenodd" d="M62.9068 9.17075C62.9068 9.74053 62.4461 10.2012 61.8763 10.2012C61.3073 10.2012 60.8458 9.74053 60.8458 9.17075C60.8458 8.60173 61.3073 8.14026 61.8763 8.14026C62.4461 8.14026 62.9068 8.60173 62.9068 9.17075Z" fill="#23853B"/>
<path fill-rule="evenodd" clip-rule="evenodd" d="M106.359 34.1689C106.359 34.5899 106.018 34.9316 105.597 34.9316C105.175 34.9316 104.834 34.5899 104.834 34.1689C104.834 33.7478 105.175 33.4061 105.597 33.4061C106.018 33.4061 106.359 33.7478 106.359 34.1689Z" fill="#23853B"/>
<path fill-rule="evenodd" clip-rule="evenodd" d="M223.179 100.847C223.718 100.743 224.076 100.22 223.975 99.6826L222.952 94.1236C222.901 93.8536 222.751 93.6332 222.54 93.489C222.331 93.3464 222.068 93.2853 221.799 93.3372C221.26 93.4417 220.905 93.9619 221.004 94.5019L222.027 100.061C222.078 100.329 222.23 100.551 222.439 100.694C222.647 100.836 222.911 100.898 223.179 100.847Z" fill="#23853B"/>
<path fill-rule="evenodd" clip-rule="evenodd" d="M218.836 98.2019C218.682 97.6748 218.982 97.118 219.506 96.9616L224.916 95.3194C225.178 95.2409 225.443 95.2729 225.668 95.3942C225.89 95.5147 226.066 95.7206 226.143 95.9822C226.297 96.5093 225.998 97.0638 225.472 97.2233L220.064 98.8655C219.804 98.9433 219.535 98.9097 219.312 98.7892C219.09 98.6694 218.914 98.4627 218.836 98.2019Z" fill="#23853B"/>
<path fill-rule="evenodd" clip-rule="evenodd" d="M26.2966 84.0651C25.9602 84.0651 25.6871 83.7158 25.6871 83.2864V78.7419C25.6871 78.3117 25.9602 77.9631 26.2966 77.9631C26.633 77.9631 26.9068 78.3117 26.9068 78.7419V83.2864C26.9068 83.7158 26.633 84.0651 26.2966 84.0651Z" fill="#23853B"/>
<path fill-rule="evenodd" clip-rule="evenodd" d="M29.3475 81.0141C29.3475 81.3505 28.999 81.6236 28.5688 81.6236H24.0243C23.5948 81.6236 23.2455 81.3505 23.2455 81.0141C23.2455 80.6777 23.5948 80.4047 24.0243 80.4047H28.5688C28.999 80.4047 29.3475 80.6777 29.3475 81.0141Z" fill="#23853B"/>
<path fill-rule="evenodd" clip-rule="evenodd" d="M157.238 37.1369C157.238 43.4601 152.111 48.5859 145.789 48.5859C139.466 48.5859 134.339 43.4601 134.339 37.1369C134.339 30.8136 139.466 25.6879 145.789 25.6879C152.111 25.6879 157.238 30.8136 157.238 37.1369Z" fill="#23853B"/>
<path fill-rule="evenodd" clip-rule="evenodd" d="M155.629 37.1369C155.629 42.5715 151.223 46.9765 145.789 46.9765C140.355 46.9765 135.948 42.5715 135.948 37.1369C135.948 31.7022 140.355 27.2965 145.789 27.2965C151.223 27.2965 155.629 31.7022 155.629 37.1369Z" fill="#3AC82E" fill-opacity="0.5"/>
<path fill-rule="evenodd" clip-rule="evenodd" d="M154.257 37.1369C154.257 41.8133 150.465 45.605 145.788 45.605C141.112 45.605 137.32 41.8133 137.32 37.1369C137.32 32.4596 141.112 28.668 145.788 28.668C150.465 28.668 154.257 32.4596 154.257 37.1369Z" fill="white"/>
<path fill-rule="evenodd" clip-rule="evenodd" d="M139.998 46.5964L145.989 52.4056L151.016 46.9771L145.585 47.6513L139.998 46.5964Z" fill="#23853B"/>
<path fill-rule="evenodd" clip-rule="evenodd" d="M144.621 40.0058L144.572 39.4376C144.514 38.7854 144.576 38.2347 144.757 37.7831C144.918 37.3819 145.206 36.9571 145.622 36.5101L145.785 36.3415C146.386 35.7283 146.766 35.2592 146.928 34.9342C147.089 34.6101 147.152 34.2348 147.115 33.8084C147.071 33.3111 146.885 32.9419 146.556 32.7024C146.226 32.4629 145.776 32.3675 145.203 32.4179C144.684 32.4629 144.211 32.5849 143.783 32.784C143.355 32.9823 142.94 33.2127 142.54 33.4743L141.715 31.9709C142.765 31.2051 143.923 30.7665 145.189 30.6559C146.258 30.5621 147.132 30.7726 147.81 31.286C148.486 31.7993 148.869 32.5567 148.957 33.5574C148.995 34.0014 148.97 34.4018 148.88 34.7596C148.791 35.1158 148.638 35.4621 148.422 35.7969C148.229 36.099 147.899 36.4895 147.434 36.97L147.274 37.1333C146.803 37.61 146.495 37.9982 146.348 38.2972C146.201 38.5962 146.149 38.986 146.191 39.4658L146.226 39.8655L144.621 40.0058ZM144.412 42.4924C144.341 41.6793 144.696 41.2392 145.476 41.1713C145.858 41.1377 146.16 41.2186 146.38 41.4131C146.6 41.6084 146.728 41.899 146.761 42.2865C146.795 42.6686 146.719 42.9798 146.534 43.2208C146.349 43.4626 146.068 43.5992 145.691 43.632C145.314 43.6655 145.016 43.5816 144.795 43.3818C144.574 43.1812 144.446 42.8845 144.412 42.4924Z" fill="#23853B"/>
<path fill-rule="evenodd" clip-rule="evenodd" d="M178.463 48.0669C177.61 52.0401 173.696 54.5687 169.723 53.7151C165.75 52.8608 163.221 48.9479 164.074 44.9747C164.929 41.0007 168.842 38.4722 172.816 39.3265C176.789 40.18 179.317 44.0937 178.463 48.0669Z" fill="#23853B"/>
<path fill-rule="evenodd" clip-rule="evenodd" d="M177.452 47.8494C176.719 51.2642 173.355 53.4381 169.94 52.7035C166.525 51.9698 164.352 48.6068 165.086 45.1919C165.819 41.777 169.182 39.6032 172.598 40.3369C176.012 41.0715 178.186 44.4345 177.452 47.8494Z" fill="#3AC82E" fill-opacity="0.5"/>
<path fill-rule="evenodd" clip-rule="evenodd" d="M176.59 47.6643C175.959 50.6032 173.064 52.4735 170.125 51.842C167.186 51.2104 165.316 48.3157 165.948 45.3768C166.579 42.4379 169.474 40.5676 172.412 41.1992C175.352 41.8308 177.222 44.7254 176.59 47.6643Z" fill="white"/>
<path fill-rule="evenodd" clip-rule="evenodd" d="M166.601 52.2505L169.333 56.1428L173.225 53.4099L166.601 52.2505Z" fill="#23853B"/>
<path fill-rule="evenodd" clip-rule="evenodd" d="M171.426 47.9749L170.649 47.8658L171.086 43.0711L172.323 43.245L171.426 47.9749ZM170.227 49.1869C170.258 48.9665 170.335 48.8071 170.459 48.7079C170.584 48.6088 170.746 48.5729 170.946 48.6011C171.143 48.6286 171.286 48.7094 171.375 48.8437C171.464 48.9772 171.493 49.1496 171.464 49.3608C171.434 49.5721 171.357 49.7315 171.233 49.8399C171.108 49.9482 170.949 49.9894 170.755 49.9619C170.557 49.9337 170.413 49.8528 170.32 49.7186C170.227 49.5843 170.196 49.4066 170.227 49.1869Z" fill="#23853B"/>
<path fill-rule="evenodd" clip-rule="evenodd" d="M207.175 86.8897C207.175 87.3108 206.834 87.6525 206.412 87.6525C205.991 87.6525 205.649 87.3108 205.649 86.8897C205.649 86.4687 205.991 86.127 206.412 86.127C206.834 86.127 207.175 86.4687 207.175 86.8897Z" fill="#23853B"/>
<path fill-rule="evenodd" clip-rule="evenodd" d="M54.6228 83.0759C54.6228 83.497 54.2819 83.8387 53.86 83.8387C53.439 83.8387 53.0973 83.497 53.0973 83.0759C53.0973 82.6549 53.439 82.3132 53.86 82.3132C54.2819 82.3132 54.6228 82.6549 54.6228 83.0759Z" fill="#23853B"/>
<path fill-rule="evenodd" clip-rule="evenodd" d="M124.829 17.7432C124.619 17.7432 124.448 17.525 124.448 17.2565V14.416C124.448 14.1475 124.619 13.9294 124.829 13.9294C125.039 13.9294 125.21 14.1475 125.21 14.416V17.2565C125.21 17.525 125.039 17.7432 124.829 17.7432Z" fill="#23853B"/>
<path fill-rule="evenodd" clip-rule="evenodd" d="M126.736 15.8363C126.736 16.0468 126.518 16.2177 126.249 16.2177H123.409C123.141 16.2177 122.923 16.0468 122.923 15.8363C122.923 15.6258 123.141 15.4549 123.409 15.4549H126.249C126.518 15.4549 126.736 15.6258 126.736 15.8363Z" fill="#23853B"/>
</svg>
