<?xml version="1.0" ?><svg width="16" height="26" viewBox="0 0 16 26" fill="none" xmlns="http://www.w3.org/2000/svg">
<path fill-rule="evenodd" clip-rule="evenodd" d="M4.03112 3.60224H11.9681C13.4412 3.60224 14.6464 4.80745 14.6464 6.28063V19.1301C14.6464 20.6033 13.4412 21.8087 11.9681 21.8087H4.03112C2.55794 21.8087 1.35274 20.6033 1.35274 19.1301L1.35292 6.28063C1.35292 4.80745 2.55812 3.60224 4.03112 3.60224H4.03112ZM7.99977 24.8452C7.31956 24.8452 6.76811 24.2939 6.76811 23.6135C6.76811 22.9333 7.31938 22.3818 7.99977 22.3818C8.67999 22.3818 9.23144 22.9333 9.23144 23.6135C9.23126 24.2941 8.67999 24.8452 7.99977 24.8452ZM3.22361 0C1.45063 0 0 1.45045 0 3.22361V22.1878C0 23.9609 1.45045 25.4114 3.22361 25.4114H12.7764C14.5496 25.4114 16 23.9609 16 22.1878V3.22361C16 1.45063 14.5496 0 12.7764 0H3.22361ZM4.61758 1.3622H11.3824C11.8689 1.3622 11.8685 2.09729 11.3824 2.09729H4.61758C4.13133 2.09746 4.13115 1.3622 4.61758 1.3622Z" fill="#A8A8A8"/>
</svg>
