<?xml version="1.0" ?><svg width="210" height="18" viewBox="0 0 210 18" fill="none" xmlns="http://www.w3.org/2000/svg">
<line y1="8.5" x2="85" y2="8.5" stroke="#A8A8A8"/>
<line x1="125" y1="8.5" x2="210" y2="8.5" stroke="#A8A8A8"/>
<path d="M104.964 8.812C104.964 6.316 103.08 4.552 100.704 4.552C98.352 4.552 96.444 6.316 96.444 8.812C96.444 11.32 98.352 13.084 100.704 13.084C103.08 13.084 104.964 11.32 104.964 8.812ZM97.848 8.812C97.848 6.928 99.048 5.752 100.704 5.752C102.36 5.752 103.56 6.928 103.56 8.812C103.56 10.696 102.36 11.896 100.704 11.896C99.048 11.896 97.848 10.696 97.848 8.812ZM110.738 7.156C110.738 7.984 110.258 8.572 109.19 8.572H107.678V5.776H109.19C110.258 5.776 110.738 6.316 110.738 7.156ZM106.31 4.66V13H107.678V9.664H108.722L110.642 13H112.274L110.21 9.544C111.614 9.196 112.142 8.14 112.142 7.156C112.142 5.8 111.17 4.66 109.19 4.66H106.31Z" fill="#A8A8A8"/>
</svg>
