<?xml version="1.0" ?><svg width="100" height="119" viewBox="0 0 100 119" fill="none" xmlns="http://www.w3.org/2000/svg">
<path d="M99.5633 30.0422C99.4905 26.7605 99.4423 23.6704 99.4423 20.6297C99.4423 18.9585 98.0859 17.602 96.4137 17.602C77.94 17.602 63.8626 12.2833 52.1242 0.859929C50.9483 -0.286643 49.0711 -0.286643 47.896 0.859929C36.145 12.285 22.0792 17.602 3.6065 17.602C1.93437 17.602 0.577883 18.9584 0.577883 20.6297C0.577883 23.6355 0.577883 26.6886 0.456893 30.0074C-0.124415 60.1096 -0.874942 101.287 49.0101 118.584C49.6538 118.808 50.3542 118.808 50.997 118.584C100.884 101.284 100.131 60.1072 99.5623 30.0412L99.5633 30.0422ZM50.0034 114.379C3.59658 97.7602 4.38543 59.7186 4.97586 29.0912C4.97586 26.7697 5.06377 24.5381 5.08834 22.3555C23.3389 21.8044 37.7 16.3466 50.0167 5.33462C62.2839 16.3476 76.695 21.8042 94.9451 22.3555C94.9451 24.539 95.0075 26.7706 95.0576 29.0912C95.6238 59.7186 96.414 97.7626 50.0058 114.379H50.0034Z" fill="#23853B"/>
<path d="M26.3911 47.8132H14.5549C13.812 47.8132 13.2079 48.4172 13.2079 49.1602V50.5515C13.2079 51.2954 13.812 51.8985 14.5549 51.8985H26.3911C27.134 51.8985 27.739 51.2954 27.739 50.5515V49.1602C27.7381 48.4182 27.134 47.8132 26.3911 47.8132Z" fill="#23853B"/>
<path d="M46.1197 47.9294H34.2835C33.5406 47.9294 32.9366 48.5324 32.9366 49.2763V50.6677C32.9366 51.4106 33.5406 52.0146 34.2835 52.0146H46.1197C46.8627 52.0146 47.4676 51.4106 47.4676 50.6677V49.2763C47.4667 48.5334 46.8627 47.9294 46.1197 47.9294Z" fill="#23853B"/>
<path d="M65.8483 47.9294H54.0131C53.2692 47.9294 52.6661 48.5324 52.6661 49.2763V50.6677C52.6661 51.4106 53.2692 52.0146 54.0131 52.0146H65.8483C66.5922 52.0146 67.1953 51.4106 67.1953 50.6677V49.2763C67.1972 48.5334 66.5922 47.9294 65.8483 47.9294Z" fill="#23853B"/>
<path d="M85.4607 47.9294H73.6245C72.8816 47.9294 72.2776 48.5324 72.2776 49.2763V50.6677C72.2776 51.4106 72.8816 52.0146 73.6245 52.0146H85.4607C86.2046 52.0146 86.8077 51.4106 86.8077 50.6677V49.2763C86.8077 48.5334 86.2046 47.9294 85.4607 47.9294Z" fill="#23853B"/>
<path d="M14.9793 40.941L15.4613 41.6697C15.7373 42.0828 16.2015 42.2378 16.6826 41.9939L19.1242 40.5279V43.3588C19.1242 43.8711 19.4957 44.2426 20.0079 44.2426H20.8199C21.3322 44.2426 21.7037 43.8711 21.7037 43.3588V40.5279L24.1329 41.9864C24.3021 42.0988 24.4836 42.1574 24.6613 42.1574C24.9893 42.1574 25.2634 41.9599 25.3863 41.6395L25.8296 40.974C25.9988 40.7188 26.0451 40.4437 25.961 40.1989C25.8854 39.9749 25.7115 39.8057 25.4733 39.7178L22.9335 38.2546L25.4798 36.7848C25.8362 36.6061 26.0573 36.3528 26.1027 36.0692C26.1348 35.866 26.0744 35.6694 25.9307 35.5125L25.4807 34.8376C25.2057 34.4245 24.7425 34.2714 24.2614 34.5134L21.8179 35.9794V33.1485C21.8179 32.6362 21.4464 32.2666 20.936 32.2666H20.1231C19.6126 32.2666 19.2412 32.6362 19.2412 33.1485V35.9794L16.81 34.5209C16.6418 34.4084 16.4593 34.3489 16.2826 34.3489C15.9546 34.3489 15.6804 34.5465 15.5576 34.8678L15.1133 35.5333C14.9441 35.7885 14.8978 36.0635 14.9829 36.3093C15.0585 36.5314 15.2324 36.7006 15.4706 36.7885L18.001 38.248L15.3138 39.7414C14.8308 40.0656 14.7977 40.577 14.9792 40.9409L14.9793 40.941Z" fill="#23853B"/>
<path d="M34.9668 36.7886L37.5066 38.2537L34.9602 39.7226C34.5575 39.923 34.411 40.5799 34.5925 40.941L35.0746 41.6698C35.2618 41.9515 35.5368 42.1065 35.8487 42.1065C35.9934 42.1065 36.1418 42.0715 36.2949 41.994L38.7384 40.5279V43.3589C38.7384 43.8712 39.1099 44.2426 39.6203 44.2426H40.4332C40.9437 44.2426 41.3151 43.8712 41.3151 43.3589V40.5279L43.7463 41.9864C43.9145 42.0989 44.097 42.1575 44.2737 42.1575C44.6017 42.1575 44.8759 41.96 44.9987 41.6395L45.443 40.9741C45.6122 40.7189 45.6585 40.4438 45.5744 40.199C45.4969 39.9769 45.3248 39.8058 45.0866 39.7179L42.5468 38.2546L45.1253 36.764C45.6093 36.4417 45.6433 35.9294 45.4618 35.5645L44.9779 34.8357C44.7028 34.4227 44.2397 34.2676 43.7585 34.5115L41.315 35.9776V33.1467C41.315 32.6343 40.9435 32.2648 40.4331 32.2648H39.6202C39.1098 32.2648 38.7383 32.6343 38.7383 33.1467V35.9776L36.3071 34.5191C36.1389 34.4066 35.9565 34.3471 35.7797 34.3471C35.4517 34.3471 35.1776 34.5446 35.0547 34.866L34.6105 35.5314C34.4413 35.7867 34.3949 36.0617 34.48 36.3075C34.5566 36.5296 34.7286 36.6988 34.9668 36.7886L34.9668 36.7886Z" fill="#23853B"/>
<path d="M54.814 36.5563L57.3519 38.0214L54.7734 39.5111C54.2894 39.8334 54.2573 40.3457 54.4388 40.7115L54.9208 41.4394C55.1959 41.8543 55.6619 42.0075 56.1402 41.7636L58.5837 40.2985V43.1294C58.5837 43.6398 58.9533 44.0113 59.4656 44.0113H60.2785C60.7908 44.0113 61.1604 43.6398 61.1604 43.1294V40.2985L63.5916 41.7551C63.7598 41.8675 63.9422 41.9271 64.12 41.9271C64.4461 41.9271 64.7202 41.7295 64.845 41.4091L65.2883 40.7427C65.4575 40.4894 65.5038 40.2143 65.4196 39.9676C65.3421 39.7427 65.1663 39.5716 64.9253 39.4856L62.5338 38.2416L65.0896 36.7661C65.5736 36.4438 65.6076 35.9315 65.4242 35.5666L64.9422 34.8379C64.6671 34.4248 64.2039 34.2698 63.7228 34.5137L61.2793 35.9797V33.1488L61.2699 33.076C61.1044 32.4134 60.7443 32.0325 60.2802 32.0325H59.4673C58.955 32.0325 58.5854 32.404 58.5854 32.9144V35.7453L56.1542 34.2887C55.986 34.1762 55.8036 34.1167 55.6258 34.1167C55.2997 34.1167 55.0256 34.3142 54.9008 34.6356L54.4594 35.301C54.2902 35.5562 54.243 35.8313 54.3271 36.0761C54.4018 36.2973 54.5738 36.4684 54.8139 36.5563L54.814 36.5563Z" fill="#23853B"/>
<path d="M74.5353 41.6694C74.7225 41.951 74.9976 42.1061 75.3095 42.1061C75.4541 42.1061 75.6025 42.0711 75.7556 41.9936L78.1992 40.5275V43.3584C78.1992 43.8708 78.5687 44.2422 79.081 44.2422H79.894C80.4044 44.2422 80.7758 43.8707 80.7758 43.3584V40.5275L83.207 41.986C83.3753 42.0985 83.5577 42.1571 83.7345 42.1571C84.0625 42.1571 84.3366 41.9595 84.4595 41.6391L84.9037 40.9737C85.072 40.7184 85.1183 40.4434 85.0341 40.1976C84.9585 39.9783 84.7874 39.8091 84.553 39.7193L82.2221 38.2627L84.8195 36.7636C85.3034 36.4413 85.3375 35.929 85.1541 35.5641L84.672 34.8353C84.397 34.4223 83.9319 34.2672 83.4527 34.5111L81.0111 35.9772V33.1463C81.0111 32.6339 80.6396 32.2644 80.1273 32.2644H79.3144C78.804 32.2644 78.4325 32.6339 78.4325 33.1463V35.9772L76.0013 34.5187C75.8331 34.4062 75.6507 34.3467 75.4739 34.3467C75.1459 34.3467 74.8718 34.5442 74.7489 34.8656L74.3046 35.531C74.1354 35.7863 74.0891 36.0613 74.1733 36.3071C74.2508 36.5292 74.4238 36.6984 74.661 36.7863L77.1989 38.2514L74.677 39.7052C74.3055 39.7931 74.0304 40.0218 73.9397 40.3215C73.8678 40.5597 73.9236 40.8121 74.0843 40.9926L74.5353 41.6694Z" fill="#23853B"/>
<path d="M61.1781 71.5296H59.0815V69.4227C59.0815 64.4195 55.0105 60.3504 50.0092 60.3504C45.0061 60.3504 40.936 64.4195 40.936 69.4227V71.5192H38.8394C37.9424 71.5192 37.2117 72.2499 37.2117 73.1469V90.5109C37.2117 91.4079 37.9424 92.1386 38.8394 92.1386H61.178C62.0666 92.1386 62.7972 91.4165 62.8057 90.5223V73.1583C62.8048 72.2603 62.0751 71.5296 61.178 71.5296L61.1781 71.5296ZM50.0093 63.6038C53.2165 63.6038 55.8291 66.2155 55.8291 69.4227V71.5192H44.1904V69.4227C44.1904 66.2155 46.8001 63.6038 50.0093 63.6038ZM59.5515 74.783V88.8934H40.4663V74.783H59.5515Z" fill="#23853B"/>
</svg>
