<?xml version="1.0" ?><svg width="21" height="21" viewBox="0 0 21 21" fill="none" xmlns="http://www.w3.org/2000/svg">
<path d="M17.0621 19.6879C17.0621 20.4127 16.4746 21.0002 15.7497 21.0002C15.0249 21.0002 14.4371 20.4127 14.4371 19.6879C14.4371 18.963 15.0249 18.3752 15.7497 18.3752C16.4746 18.3752 17.0621 18.963 17.0621 19.6879Z" fill="#A8A8A8"/>
<path d="M6.56213 19.6879C6.56213 20.4127 5.97438 21.0002 5.24952 21.0002C4.52465 21.0002 3.93713 20.4127 3.93713 19.6879C3.93713 18.963 4.52465 18.3752 5.24952 18.3752C5.97438 18.3752 6.56213 18.963 6.56213 19.6879Z" fill="#A8A8A8"/>
<path d="M11.8121 19.6879C11.8121 20.4127 11.2246 21.0002 10.4998 21.0002C9.7749 21.0002 9.18738 20.4127 9.18738 19.6879C9.18738 18.963 9.7749 18.3752 10.4998 18.3752C11.2246 18.3752 11.8121 18.963 11.8121 19.6879Z" fill="#A8A8A8"/>
<path d="M10.4996 5.25037C9.10733 5.25037 7.7718 5.80357 6.78742 6.78822C5.80276 7.77265 5.24957 9.10818 5.24957 10.5004C5.24957 11.8927 5.80278 13.2283 6.78742 14.2126C7.77186 15.1973 9.10739 15.7505 10.4996 15.7505C11.8919 15.7505 13.2275 15.1973 14.2118 14.2126C15.1965 13.2282 15.7497 11.8927 15.7497 10.5004C15.7497 9.10818 15.1965 7.77259 14.2118 6.78822C13.2274 5.80355 11.8919 5.25037 10.4996 5.25037ZM10.4996 13.1254V13.1256C9.80336 13.1256 9.13575 12.8489 8.64338 12.3568C8.15129 11.8645 7.87457 11.1968 7.87457 10.5005C7.87457 9.80427 8.15129 9.13665 8.64338 8.64429C9.1357 8.15219 9.80336 7.87548 10.4996 7.87548C11.1959 7.87548 11.8635 8.1522 12.3559 8.64429C12.848 9.13661 13.1247 9.80427 13.1247 10.5005C13.1247 11.1968 12.848 11.8644 12.3559 12.3568C11.8636 12.8489 11.1959 13.1256 10.4996 13.1256V13.1254Z" fill="#A8A8A8"/>
<path d="M10.4996 0.000351816C7.71486 0.000351816 5.04428 1.10654 3.07523 3.07559C1.10619 5.04486 0 7.71551 0 10.5H2.62506C2.62506 7.68656 4.12582 5.0867 6.5625 3.68027C8.99895 2.27356 12.0009 2.27356 14.4375 3.68027C16.8742 5.08699 18.3749 7.68685 18.3749 10.5H21C21 8.65682 20.5148 6.84615 19.5933 5.24988C18.6718 3.65367 17.3463 2.32822 15.7501 1.40672C14.1539 0.485215 12.3432 0 10.5 0L10.4996 0.000351816Z" fill="#A8A8A8"/>
</svg>
