<?xml version="1.0" ?><svg width="323" height="52" viewBox="0 0 323 52" fill="none" xmlns="http://www.w3.org/2000/svg">
<rect x="0.7" y="0.7" width="321.6" height="50.6" rx="10.3" fill="white"/>
<path d="M75.646 24.75V21.572H77.41C78.656 21.572 79.216 22.16 79.216 23.168C79.216 24.148 78.656 24.75 77.41 24.75H75.646ZM80.854 23.168C80.854 21.586 79.72 20.27 77.41 20.27H74.05V30H75.646V26.052H77.41C79.944 26.052 80.854 24.554 80.854 23.168ZM81.8442 26.108C81.8442 28.488 83.4542 30.126 85.4562 30.126C86.7442 30.126 87.6682 29.51 88.1582 28.852V30H89.7682V22.286H88.1582V23.406C87.6822 22.776 86.7862 22.16 85.4842 22.16C83.4542 22.16 81.8442 23.728 81.8442 26.108ZM88.1582 26.136C88.1582 27.802 87.0242 28.74 85.8202 28.74C84.6302 28.74 83.4822 27.774 83.4822 26.108C83.4822 24.442 84.6302 23.546 85.8202 23.546C87.0242 23.546 88.1582 24.484 88.1582 26.136ZM97.6185 27.844C97.5345 25.058 93.1805 25.926 93.1805 24.372C93.1805 23.854 93.6285 23.504 94.4825 23.504C95.3505 23.504 95.8685 23.966 95.9245 24.638H97.5205C97.4365 23.098 96.2885 22.16 94.5385 22.16C92.7185 22.16 91.5705 23.154 91.5705 24.386C91.5705 27.214 96.0505 26.346 96.0505 27.858C96.0505 28.39 95.5605 28.782 94.6365 28.782C93.7545 28.782 93.1525 28.264 93.0965 27.634H91.4445C91.5145 29.034 92.8165 30.126 94.6645 30.126C96.4845 30.126 97.6185 29.146 97.6185 27.844ZM105.097 27.844C105.013 25.058 100.659 25.926 100.659 24.372C100.659 23.854 101.107 23.504 101.961 23.504C102.829 23.504 103.347 23.966 103.403 24.638H104.999C104.915 23.098 103.767 22.16 102.017 22.16C100.197 22.16 99.049 23.154 99.049 24.386C99.049 27.214 103.529 26.346 103.529 27.858C103.529 28.39 103.039 28.782 102.115 28.782C101.233 28.782 100.631 28.264 100.575 27.634H98.923C98.993 29.034 100.295 30.126 102.143 30.126C103.963 30.126 105.097 29.146 105.097 27.844ZM108.319 30H109.999L111.553 24.302L113.107 30H114.787L117.181 22.286H115.613L114.017 28.46L112.449 22.286H110.783L109.145 28.488L107.535 22.286H105.911L108.319 30ZM125.724 26.136C125.724 23.714 123.988 22.16 121.79 22.16C119.592 22.16 117.856 23.714 117.856 26.136C117.856 28.558 119.522 30.126 121.72 30.126C123.932 30.126 125.724 28.558 125.724 26.136ZM119.48 26.136C119.48 24.386 120.558 23.546 121.762 23.546C122.952 23.546 124.086 24.386 124.086 26.136C124.086 27.886 122.91 28.74 121.72 28.74C120.516 28.74 119.48 27.886 119.48 26.136ZM128.898 25.94C128.898 24.302 129.626 23.812 130.802 23.812H131.208V22.16C130.116 22.16 129.346 22.636 128.898 23.406V22.286H127.302V30H128.898V25.94ZM132.143 26.108C132.143 28.488 133.753 30.126 135.783 30.126C137.043 30.126 137.967 29.538 138.457 28.838V30H140.067V19.64H138.457V23.364C137.869 22.636 136.805 22.16 135.797 22.16C133.753 22.16 132.143 23.728 132.143 26.108ZM138.457 26.136C138.457 27.802 137.323 28.74 136.119 28.74C134.929 28.74 133.781 27.774 133.781 26.108C133.781 24.442 134.929 23.546 136.119 23.546C137.323 23.546 138.457 24.484 138.457 26.136Z" fill="#A8A8A8"/>
<path d="M277.588 27.684C277.588 28.116 277.48 28.516 277.264 28.884C277.048 29.244 276.728 29.536 276.304 29.76C275.88 29.976 275.364 30.084 274.756 30.084C274.156 30.084 273.62 29.984 273.148 29.784C272.676 29.576 272.296 29.28 272.008 28.896C271.728 28.512 271.568 28.064 271.528 27.552H273.328C273.368 27.896 273.504 28.184 273.736 28.416C273.976 28.64 274.292 28.752 274.684 28.752C275.036 28.752 275.304 28.66 275.488 28.476C275.68 28.284 275.776 28.04 275.776 27.744C275.776 27.48 275.7 27.264 275.548 27.096C275.396 26.92 275.204 26.78 274.972 26.676C274.74 26.572 274.42 26.452 274.012 26.316C273.484 26.14 273.052 25.968 272.716 25.8C272.38 25.624 272.092 25.372 271.852 25.044C271.62 24.716 271.504 24.288 271.504 23.76C271.504 23.032 271.764 22.46 272.284 22.044C272.812 21.62 273.508 21.408 274.372 21.408C275.268 21.408 275.98 21.624 276.508 22.056C277.044 22.488 277.348 23.064 277.42 23.784H275.596C275.548 23.48 275.42 23.232 275.212 23.04C275.004 22.84 274.72 22.74 274.36 22.74C274.048 22.74 273.796 22.824 273.604 22.992C273.412 23.152 273.316 23.388 273.316 23.7C273.316 23.948 273.388 24.156 273.532 24.324C273.684 24.484 273.872 24.616 274.096 24.72C274.328 24.824 274.64 24.94 275.032 25.068C275.576 25.26 276.016 25.44 276.352 25.608C276.696 25.776 276.988 26.028 277.228 26.364C277.468 26.7 277.588 27.14 277.588 27.684ZM282.794 23.256C283.562 23.256 284.174 23.508 284.63 24.012C285.086 24.516 285.314 25.224 285.314 26.136V30H283.634V26.328C283.634 25.8 283.498 25.392 283.226 25.104C282.954 24.808 282.582 24.66 282.11 24.66C281.63 24.66 281.246 24.816 280.958 25.128C280.67 25.44 280.526 25.888 280.526 26.472V30H278.834V21.12H280.526V24.684C280.702 24.236 280.99 23.888 281.39 23.64C281.798 23.384 282.266 23.256 282.794 23.256ZM289.875 23.268C290.523 23.268 291.103 23.404 291.615 23.676C292.135 23.948 292.543 24.344 292.839 24.864C293.135 25.376 293.283 25.98 293.283 26.676C293.283 27.372 293.135 27.976 292.839 28.488C292.543 29 292.135 29.396 291.615 29.676C291.103 29.948 290.523 30.084 289.875 30.084C289.227 30.084 288.643 29.948 288.123 29.676C287.611 29.396 287.207 29 286.911 28.488C286.615 27.976 286.467 27.372 286.467 26.676C286.467 25.98 286.615 25.376 286.911 24.864C287.207 24.344 287.611 23.948 288.123 23.676C288.643 23.404 289.227 23.268 289.875 23.268ZM289.875 24.732C289.403 24.732 289.003 24.9 288.675 25.236C288.347 25.564 288.183 26.044 288.183 26.676C288.183 27.308 288.347 27.792 288.675 28.128C289.003 28.456 289.403 28.62 289.875 28.62C290.347 28.62 290.747 28.456 291.075 28.128C291.403 27.792 291.567 27.308 291.567 26.676C291.567 26.044 291.403 25.564 291.075 25.236C290.747 24.9 290.347 24.732 289.875 24.732ZM303.995 23.352L302.207 30H300.335L298.907 25.164L297.443 30H295.571L293.795 23.352H295.487L296.567 28.488L298.043 23.352H299.831L301.319 28.488L302.411 23.352H303.995Z" fill="#23853B"/>
<line x1="56.5" y1="17" x2="56.5" y2="35" stroke="#A8A8A8"/>
<path d="M35.0621 34.6879C35.0621 35.4127 34.4746 36.0002 33.7498 36.0002C33.0249 36.0002 32.4371 35.4127 32.4371 34.6879C32.4371 33.963 33.0249 33.3752 33.7498 33.3752C34.4746 33.3752 35.0621 33.963 35.0621 34.6879Z" fill="#A8A8A8"/>
<path d="M24.5621 34.6879C24.5621 35.4127 23.9744 36.0002 23.2495 36.0002C22.5247 36.0002 21.9371 35.4127 21.9371 34.6879C21.9371 33.963 22.5247 33.3752 23.2495 33.3752C23.9744 33.3752 24.5621 33.963 24.5621 34.6879Z" fill="#A8A8A8"/>
<path d="M29.8121 34.6879C29.8121 35.4127 29.2246 36.0002 28.4998 36.0002C27.7749 36.0002 27.1874 35.4127 27.1874 34.6879C27.1874 33.963 27.7749 33.3752 28.4998 33.3752C29.2246 33.3752 29.8121 33.963 29.8121 34.6879Z" fill="#A8A8A8"/>
<path d="M28.4996 20.2504C27.1073 20.2504 25.7718 20.8036 24.7874 21.7882C23.8028 22.7727 23.2496 24.1082 23.2496 25.5004C23.2496 26.8927 23.8028 28.2283 24.7874 29.2126C25.7719 30.1973 27.1074 30.7505 28.4996 30.7505C29.8919 30.7505 31.2275 30.1973 32.2119 29.2126C33.1965 28.2282 33.7497 26.8927 33.7497 25.5004C33.7497 24.1082 33.1965 22.7726 32.2119 21.7882C31.2274 20.8035 29.8919 20.2504 28.4996 20.2504ZM28.4996 28.1254V28.1256C27.8034 28.1256 27.1358 27.8489 26.6434 27.3568C26.1513 26.8645 25.8746 26.1968 25.8746 25.5005C25.8746 24.8043 26.1513 24.1367 26.6434 23.6443C27.1357 23.1522 27.8034 22.8755 28.4996 22.8755C29.1959 22.8755 29.8635 23.1522 30.3559 23.6443C30.848 24.1366 31.1247 24.8043 31.1247 25.5005C31.1247 26.1968 30.848 26.8644 30.3559 27.3568C29.8636 27.8489 29.1959 28.1256 28.4996 28.1256V28.1254Z" fill="#A8A8A8"/>
<path d="M28.4996 15.0004C25.7149 15.0004 23.0443 16.1065 21.0752 18.0756C19.1062 20.0449 18 22.7155 18 25.5H20.6251C20.6251 22.6866 22.1258 20.0867 24.5625 18.6803C26.9989 17.2736 30.0009 17.2736 32.4375 18.6803C34.8742 20.087 36.3749 22.6869 36.3749 25.5H39C39 23.6568 38.5148 21.8462 37.5933 20.2499C36.6718 18.6537 35.3463 17.3282 33.7501 16.4067C32.1539 15.4852 30.3432 15 28.5 15L28.4996 15.0004Z" fill="#A8A8A8"/>
<rect x="0.7" y="0.7" width="321.6" height="50.6" rx="10.3" stroke="#A8A8A8" stroke-width="0.6"/>
</svg>
